<svg xmlns="http://www.w3.org/2000/svg" xmlns:xlink="http://www.w3.org/1999/xlink" xmlns:lucid="lucid" width="1528" height="734"><g transform="translate(-12 -180)" lucid:page-tab-id="0_0"><path d="M0 0h1870.4v1323.2H0z" fill="#fff"/><path d="M339 226h181v534H32V200h293zm-307 0h307" stroke="#000" stroke-width="2" fill="#fff"/><use xlink:href="#a" transform="matrix(1,0,0,1,40,200) translate(0 16.6)"/><use xlink:href="#b" transform="matrix(1,0,0,1,40,200) translate(53.95 16.6)"/><path d="M120 260h200v120H120z" stroke="#000" stroke-width="2" fill="#fff"/><path d="M100 280h40v20h-40zM100 340h40v20h-40z" stroke="#000" stroke-width="2" fill="#fff"/><use xlink:href="#c" transform="matrix(1,0,0,1,144,272) translate(5.074999999999989 51.6)"/><use xlink:href="#d" transform="matrix(1,0,0,1,144,272) translate(113.975 51.6)"/><path d="M322 320h163.5v80H649" stroke="#000" stroke-width="2" fill="none"/><path d="M322.03 321H321v-2h1.03zM650 401h-1.03v-2H650z"/><use xlink:href="#e" transform="matrix(1,0,0,1,600.575,404) translate(0 14.4)"/><use xlink:href="#f" transform="matrix(1,0,0,1,539.186915983457,374.40000000000003) translate(0 14.4)"/><use xlink:href="#g" transform="matrix(1,0,0,1,539.186915983457,374.40000000000003) translate(53.95 14.4)"/><path d="M700 400h-11M655 400h-5" stroke="#000" stroke-width="2" fill="none"/><path d="M675 414c-7.73 0-14-6.27-14-14s6.27-14 14-14 14 6.27 14 14-6.27 14-14 14z" stroke="#000" stroke-width="2" fill="#fff"/><path d="M675 380c-11.05 0-20 8.95-20 20s8.95 20 20 20" stroke="#000" stroke-width="2" fill="none"/><path d="M700 400.8h-11v-1.6h11z" fill="none"/><path d="M1060 400h11M1105 400h5" stroke="#000" stroke-width="2" fill="none"/><path d="M1085 386c7.73 0 14 6.27 14 14s-6.27 14-14 14-14-6.27-14-14 6.27-14 14-14z" stroke="#000" stroke-width="2" fill="#fff"/><path d="M1085 420c11.05 0 20-8.95 20-20s-8.95-20-20-20" stroke="#000" stroke-width="2" fill="none"/><path d="M1060 399.2h11v1.6h-11z" fill="none"/><path d="M1338 409.67h-113.5V400H1111" stroke="#000" stroke-width="2" fill="none"/><path d="M1339 410.67h-1.03v-2h1.03zM1111.03 401H1110v-2h1.03z"/><use xlink:href="#h" transform="matrix(1,0,0,1,1110.2,404) translate(0 14.4)"/><use xlink:href="#i" transform="matrix(1,0,0,1,1107.7666666666669,374.4) translate(0 14.4)"/><use xlink:href="#j" transform="matrix(1,0,0,1,1107.7666666666669,374.4) translate(62.95 14.4)"/><path d="M1060 480h11M1105 480h5" stroke="#000" stroke-width="2" fill="none"/><path d="M1085 466c7.73 0 14 6.27 14 14s-6.27 14-14 14-14-6.27-14-14 6.27-14 14-14z" stroke="#000" stroke-width="2" fill="#fff"/><path d="M1085 500c11.05 0 20-8.95 20-20s-8.95-20-20-20" stroke="#000" stroke-width="2" fill="none"/><path d="M1060 479.2h11v1.6h-11z" fill="none"/><path d="M1111 480h113.5v-9.67H1338" stroke="#000" stroke-width="2" fill="none"/><path d="M1111.03 481H1110v-2h1.03zM1339 471.33h-1.03v-2h1.03z"/><use xlink:href="#k" transform="matrix(1,0,0,1,1112.55,454.3999999999999) translate(0 14.4)"/><use xlink:href="#l" transform="matrix(1,0,0,1,1112.55,454.3999999999999) translate(47 14.4)"/><use xlink:href="#m" transform="matrix(1,0,0,1,1112.55,454.3999999999999) translate(57 14.4)"/><use xlink:href="#e" transform="matrix(1,0,0,1,1113.9083333333333,483.99999999999994) translate(0 14.4)"/><path d="M120 440h200v120H120z" stroke="#000" stroke-width="2" fill="#fff"/><path d="M100 460h40v20h-40zM100 520h40v20h-40z" stroke="#000" stroke-width="2" fill="#fff"/><use xlink:href="#n" transform="matrix(1,0,0,1,144,452) translate(9.574999999999989 40.8)"/><use xlink:href="#o" transform="matrix(1,0,0,1,144,452) translate(94.52499999999999 40.8)"/><use xlink:href="#p" transform="matrix(1,0,0,1,144,452) translate(36.55 62.4)"/><use xlink:href="#q" transform="matrix(1,0,0,1,144,452) translate(86.5 62.4)"/><path d="M320 500h11M365 500h5" stroke="#000" stroke-width="2" fill="none"/><path d="M345 486c7.73 0 14 6.27 14 14s-6.27 14-14 14-14-6.27-14-14 6.27-14 14-14z" stroke="#000" stroke-width="2" fill="#fff"/><path d="M345 520c11.05 0 20-8.95 20-20s-8.95-20-20-20" stroke="#000" stroke-width="2" fill="none"/><path d="M320 499.2h11v1.6h-11z" fill="none"/><path d="M371 500h189v-40h138" stroke="#000" stroke-width="2" fill="none"/><path d="M371.03 501H370v-2h1.03z"/><path d="M697.97 460H699" stroke="#000" stroke-width="2" fill="none"/><use xlink:href="#n" transform="matrix(1,0,0,1,373.71666666666664,503.99999999999994) translate(0 14.4)"/><use xlink:href="#r" transform="matrix(1,0,0,1,373.71666666666664,503.99999999999994) translate(84.95 14.4)"/><use xlink:href="#s" transform="matrix(1,0,0,1,372.7416666666666,474.4) translate(0 14.4)"/><use xlink:href="#t" transform="matrix(1,0,0,1,372.7416666666666,474.4) translate(34.9 14.4)"/><use xlink:href="#u" transform="matrix(1,0,0,1,372.7416666666666,474.4) translate(85.85 14.4)"/><path d="M120 601.6h200v120H120z" stroke="#000" stroke-width="2" fill="#fff"/><path d="M100 621.6h40v20h-40zM100 681.6h40v20h-40z" stroke="#000" stroke-width="2" fill="#fff"/><use xlink:href="#v" transform="matrix(1,0,0,1,144,613.5999999999767) translate(30.75 51.6)"/><use xlink:href="#w" transform="matrix(1,0,0,1,144,613.5999999999767) translate(72.35 51.6)"/><path d="M320 661.6h11M365 661.6h5" stroke="#000" stroke-width="2" fill="none"/><path d="M345 647.6c7.73 0 14 6.27 14 14s-6.27 14-14 14-14-6.27-14-14 6.27-14 14-14z" stroke="#000" stroke-width="2" fill="#fff"/><path d="M345 681.6c11.05 0 20-8.95 20-20s-8.95-20-20-20" stroke="#000" stroke-width="2" fill="none"/><path d="M320 660.8h11v1.6h-11z" fill="none"/><path d="M698 520.33H590V661.6H371M697.97 520.33H699" stroke="#000" stroke-width="2" fill="none"/><path d="M371.03 662.6H370v-2h1.03z"/><use xlink:href="#s" transform="matrix(1,0,0,1,369.5999999999999,636) translate(0 14.4)"/><use xlink:href="#x" transform="matrix(1,0,0,1,369.5999999999999,636) translate(34.9 14.4)"/><use xlink:href="#y" transform="matrix(1,0,0,1,369.5999999999999,636) translate(98.80000000000001 14.4)"/><use xlink:href="#z" transform="matrix(1,0,0,1,371.2416666666667,665.5999999999999) translate(0 14.4)"/><path d="M1340 740h-11M1295 740h-5" stroke="#000" stroke-width="2" fill="none"/><path d="M1315 754c-7.73 0-14-6.27-14-14s6.27-14 14-14 14 6.27 14 14-6.27 14-14 14z" stroke="#000" stroke-width="2" fill="#fff"/><path d="M1315 720c-11.05 0-20 8.95-20 20s8.95 20 20 20" stroke="#000" stroke-width="2" fill="none"/><path d="M1340 740.8h-11v-1.6h11z" fill="none"/><path d="M1340 380h180v120h-180z" stroke="#000" stroke-width="2" fill="#fff"/><path d="M1510 390h-15v20h15z" stroke="#000" fill="#fff"/><path d="M1500 393.33h-10v3.34h10zm0 10h-10v3.34h10z" stroke="#000" fill="#fff"/><use xlink:href="#A" transform="matrix(1,0,0,1,1340,380) translate(30.479999999999997 51.9)"/><use xlink:href="#B" transform="matrix(1,0,0,1,1340,380) translate(83.68 51.9)"/><use xlink:href="#C" transform="matrix(1,0,0,1,1340,380) translate(50.529999999999994 73.5)"/><path d="M1050.33 739H1289v2h-240.67V582h2z"/><path d="M1290 741h-1.03v-2h1.03zM1050.33 582.03h-2V581h2z"/><use xlink:href="#D" transform="matrix(1,0,0,1,1144.3882132132132,714.4000000000002) translate(0 14.4)"/><use xlink:href="#E" transform="matrix(1,0,0,1,1144.3882132132132,714.4000000000002) translate(41 14.4)"/><use xlink:href="#F" transform="matrix(1,0,0,1,1144.3882132132132,714.4000000000002) translate(104.9 14.4)"/><use xlink:href="#G" transform="matrix(1,0,0,1,1153.6416666666667,744.0000000000002) translate(0 14.4)"/><use xlink:href="#H" transform="matrix(1,0,0,1,1153.6416666666667,744.0000000000002) translate(51.5 14.4)"/><path d="M970 580v11M970 625v5" stroke="#000" stroke-width="2" fill="none"/><path d="M984 605c0 7.73-6.27 14-14 14s-14-6.27-14-14 6.27-14 14-14 14 6.27 14 14z" stroke="#000" stroke-width="2" fill="#fff"/><path d="M950 605c0 11.05 8.95 20 20 20s20-8.95 20-20" stroke="#000" stroke-width="2" fill="none"/><path d="M970.8 580v11h-1.6v-11z" fill="none"/><path d="M971 789.33h367v2H969v-106h2zm0-147.2h-2V631h2z"/><path d="M971 631.03h-2V630h2zM1339 791.33h-1.03v-2h1.03z"/><use xlink:href="#I" transform="matrix(1,0,0,1,898.575,642.1339639863911) translate(0.0049999999999954525 14.4)"/><use xlink:href="#J" transform="matrix(1,0,0,1,898.575,642.1339639863911) translate(69.905 14.4)"/><use xlink:href="#K" transform="matrix(1,0,0,1,898.575,642.1339639863911) translate(41.005 36)"/><path d="M700 340h360v240H700z" stroke="#000" stroke-width="2" fill="#fff"/><path d="M1050 350h-15v20h15z" stroke="#000" fill="#fff"/><path d="M1040 353.33h-10v3.34h10zm0 10h-10v3.34h10z" stroke="#000" fill="#fff"/><use xlink:href="#L" transform="matrix(1,0,0,1,700,340) translate(84.905 127.36875)"/><use xlink:href="#M" transform="matrix(1,0,0,1,700,340) translate(139.105 127.36875)"/><use xlink:href="#N" transform="matrix(1,0,0,1,700,340) translate(234.10500000000002 127.36875)"/><path d="M761 338h-2v-15.87h2zm0-37.47h-2V291h2z"/><path d="M761 291.03h-2V290h2zM761 339h-2v-1.03h2z"/><use xlink:href="#O" transform="matrix(1,0,0,1,718.525,300.5333333333333) translate(0 14.4)"/><use xlink:href="#P" transform="matrix(1,0,0,1,718.525,300.5333333333333) translate(53.95 14.4)"/><path d="M881 338h-2v-19.87h2zm0-41.47h-2V291h2z"/><path d="M881 291.03h-2V290h2zM881 339h-2v-1.03h2z"/><g><use xlink:href="#Q" transform="matrix(1,0,0,1,829.55,296.5333333333333) translate(0 14.4)"/><use xlink:href="#R" transform="matrix(1,0,0,1,829.55,296.5333333333333) translate(71.95 14.4)"/></g><path d="M1016 338h-2v-19.87h2zm0-41.47h-2V291h2z"/><path d="M1016 291.03h-2V290h2zM1016 339h-2v-1.03h2z"/><g><use xlink:href="#S" transform="matrix(1,0,0,1,968.05,296.5333333333333) translate(0 14.4)"/><use xlink:href="#P" transform="matrix(1,0,0,1,968.05,296.5333333333333) translate(64.9 14.4)"/></g><g><path d="M760 290v-10m0-40c11.05 0 20 8.95 20 20s-8.95 20-20 20-20-8.95-20-20 8.95-20 20-20z" stroke="#000" stroke-width="2" fill="#fff"/><path d="M759.2 290v-10h1.6v10z" fill="none"/></g><g><path d="M880 290v-10m0-40c11.05 0 20 8.95 20 20s-8.95 20-20 20-20-8.95-20-20 8.95-20 20-20z" stroke="#000" stroke-width="2" fill="#fff"/><path d="M879.2 290v-10h1.6v10z" fill="none"/></g><g><path d="M1015 290v-10m0-40c11.05 0 20 8.95 20 20s-8.95 20-20 20-20-8.95-20-20 8.95-20 20-20z" stroke="#000" stroke-width="2" fill="#fff"/><path d="M1014.2 290v-10h1.6v10z" fill="none"/></g><path d="M680 882c0 6.63-26.86 12-60 12s-60-5.37-60-12v-96c0-6.63 26.86-12 60-12s60 5.37 60 12z" stroke="#000" stroke-width="2" fill="#fff"/><path d="M680 786c0 6.63-26.86 12-60 12s-60-5.37-60-12" stroke="#000" stroke-width="2" fill="none"/><g><use xlink:href="#T" transform="matrix(1,0,0,1,565,803) translate(12.674999999999997 25.15)"/><use xlink:href="#U" transform="matrix(1,0,0,1,565,803) translate(25.049999999999997 46.75)"/><use xlink:href="#V" transform="matrix(1,0,0,1,565,803) translate(21.025 68.35000000000001)"/></g><path d="M721.33 582v142H620v48" stroke="#000" stroke-width="2" fill="none"/><path d="M722.33 582.03h-2V581h2zM621 773.04l-1-.04-1 .03v-1.06h2z"/><path d="M820 882c0 6.63-26.86 12-60 12s-60-5.37-60-12v-96c0-6.63 26.86-12 60-12s60 5.37 60 12z" stroke="#000" stroke-width="2" fill="#fff"/><path d="M820 786c0 6.63-26.86 12-60 12s-60-5.37-60-12" stroke="#000" stroke-width="2" fill="none"/><g><use xlink:href="#W" transform="matrix(1,0,0,1,705,803) translate(18.125 35.9)"/><use xlink:href="#X" transform="matrix(1,0,0,1,705,803) translate(10.049999999999997 57.5)"/><use xlink:href="#Y" transform="matrix(1,0,0,1,705,803) translate(67.95 57.5)"/></g><path d="M760 772V582" stroke="#000" stroke-width="2" fill="none"/><path d="M761 773.04l-1-.04-1 .03v-1.06h2zM761 582.03h-2V581h2z"/><path d="M960 882c0 6.63-26.86 12-60 12s-60-5.37-60-12v-96c0-6.63 26.86-12 60-12s60 5.37 60 12z" stroke="#000" stroke-width="2" fill="#fff"/><path d="M960 786c0 6.63-26.86 12-60 12s-60-5.37-60-12" stroke="#000" stroke-width="2" fill="none"/><g><use xlink:href="#Z" transform="matrix(1,0,0,1,845,803) translate(30.549999999999997 25.15)"/><use xlink:href="#aa" transform="matrix(1,0,0,1,845,803) translate(36.025 46.75)"/><use xlink:href="#ab" transform="matrix(1,0,0,1,845,803) translate(35 68.35000000000001)"/></g><path d="M807.67 723H901v49h-2v-47h-93.33V582h2z"/><path d="M901 773.04l-1-.04-1 .03v-1.06h2zM807.67 582.03h-2V581h2z"/><path d="M1340 700h180v120h-180z" stroke="#000" stroke-width="2" fill="#fff"/><g><use xlink:href="#ac" transform="matrix(1,0,0,1,1340,700) translate(56.57999999999999 51.9)"/><use xlink:href="#ad" transform="matrix(1,0,0,1,1340,700) translate(45.105 73.5)"/><use xlink:href="#ae" transform="matrix(1,0,0,1,1340,700) translate(70.055 73.5)"/></g><path d="M1340 540h180v120h-180z" stroke="#000" stroke-width="2" fill="#fff"/><g><use xlink:href="#af" transform="matrix(1,0,0,1,1340,540) translate(53.029999999999994 51.9)"/><use xlink:href="#ag" transform="matrix(1,0,0,1,1340,540) translate(35.10499999999999 73.5)"/><use xlink:href="#ah" transform="matrix(1,0,0,1,1340,540) translate(95.005 73.5)"/></g><g><path d="M1340 600h-11M1295 600h-5" stroke="#000" stroke-width="2" fill="none"/><path d="M1315 614c-7.73 0-14-6.27-14-14s6.27-14 14-14 14 6.27 14 14-6.27 14-14 14z" stroke="#000" stroke-width="2" fill="#fff"/><path d="M1315 580c-11.05 0-20 8.95-20 20s8.95 20 20 20" stroke="#000" stroke-width="2" fill="none"/><path d="M1340 600.8h-11v-1.6h11z" fill="none"/></g><path d="M1289 600h-113.5v-59.33H1062" stroke="#000" stroke-width="2" fill="none"/><path d="M1290 601h-1.03v-2h1.03zM1062.03 541.67H1061v-2h1.03z"/><g><use xlink:href="#ai" transform="matrix(1,0,0,1,1191.4083333333333,574.4000000000002) translate(0 14.4)"/><use xlink:href="#aj" transform="matrix(1,0,0,1,1191.4083333333333,574.4000000000002) translate(32.95 14.4)"/></g><g><use xlink:href="#e" transform="matrix(1,0,0,1,1237.9083333333333,604.0000000000002) translate(0 14.4)"/></g><defs><path d="M143 4C61 4 22-44 18-125c-5-107 100-154 193-111 17 8 29 25 37 43l-32 9c-13-25-37-40-76-40-61 0-88 39-88 99 0 61 29 100 91 101 35 0 62-11 79-27v-45h-74v-28h105v86C228-13 192 4 143 4" id="ak"/><path d="M141-36C126-15 110 5 73 4 37 3 15-17 15-53c-1-64 63-63 125-63 3-35-9-54-41-54-24 1-41 7-42 31l-33-3c5-37 33-52 76-52 45 0 72 20 72 64v82c-1 20 7 32 28 27v20c-31 9-61-2-59-35zM48-53c0 20 12 33 32 33 41-3 63-29 60-74-43 2-92-5-92 41" id="al"/><path d="M210-169c-67 3-38 105-44 169h-31v-121c0-29-5-50-35-48C34-165 62-65 56 0H25l-1-190h30c1 10-1 24 2 32 10-44 99-50 107 0 11-21 27-35 58-36 85-2 47 119 55 194h-31v-121c0-29-5-49-35-48" id="am"/><path d="M100-194c63 0 86 42 84 106H49c0 40 14 67 53 68 26 1 43-12 49-29l28 8c-11 28-37 45-77 45C44 4 14-33 15-96c1-61 26-98 85-98zm52 81c6-60-76-77-97-28-3 7-6 17-6 28h103" id="an"/><g id="a"><use transform="matrix(0.05,0,0,0.05,0,0)" xlink:href="#ak"/><use transform="matrix(0.05,0,0,0.05,14,0)" xlink:href="#al"/><use transform="matrix(0.05,0,0,0.05,24,0)" xlink:href="#am"/><use transform="matrix(0.05,0,0,0.05,38.95,0)" xlink:href="#an"/></g><path d="M185-189c-5-48-123-54-124 2 14 75 158 14 163 119 3 78-121 87-175 55-17-10-28-26-33-46l33-7c5 56 141 63 141-1 0-78-155-14-162-118-5-82 145-84 179-34 5 7 8 16 11 25" id="ao"/><path d="M114-163C36-179 61-72 57 0H25l-1-190h30c1 12-1 29 2 39 6-27 23-49 58-41v29" id="ap"/><path d="M108 0H70L1-190h34L89-25l56-165h34" id="aq"/><g id="b"><use transform="matrix(0.05,0,0,0.05,0,0)" xlink:href="#ao"/><use transform="matrix(0.05,0,0,0.05,12,0)" xlink:href="#an"/><use transform="matrix(0.05,0,0,0.05,22,0)" xlink:href="#ap"/><use transform="matrix(0.05,0,0,0.05,27.950000000000003,0)" xlink:href="#aq"/><use transform="matrix(0.05,0,0,0.05,36.95,0)" xlink:href="#an"/><use transform="matrix(0.05,0,0,0.05,46.95,0)" xlink:href="#ap"/></g><path d="M59-47c-2 24 18 29 38 22v24C64 9 27 4 27-40v-127H5v-23h24l9-43h21v43h35v23H59v120" id="ar"/><path d="M84 4C-5 8 30-112 23-190h32v120c0 31 7 50 39 49 72-2 45-101 50-169h31l1 190h-30c-1-10 1-25-2-33-11 22-28 36-60 37" id="as"/><path d="M135-143c-3-34-86-38-87 0 15 53 115 12 119 90S17 21 10-45l28-5c4 36 97 45 98 0-10-56-113-15-118-90-4-57 82-63 122-42 12 7 21 19 24 35" id="at"/><g id="c"><use transform="matrix(0.05,0,0,0.05,0,0)" xlink:href="#ao"/><use transform="matrix(0.05,0,0,0.05,12,0)" xlink:href="#an"/><use transform="matrix(0.05,0,0,0.05,22,0)" xlink:href="#ap"/><use transform="matrix(0.05,0,0,0.05,27.950000000000003,0)" xlink:href="#aq"/><use transform="matrix(0.05,0,0,0.05,36.95,0)" xlink:href="#an"/><use transform="matrix(0.05,0,0,0.05,46.95,0)" xlink:href="#ap"/><use transform="matrix(0.05,0,0,0.05,52.900000000000006,0)" xlink:href="#ao"/><use transform="matrix(0.05,0,0,0.05,64.9,0)" xlink:href="#ar"/><use transform="matrix(0.05,0,0,0.05,69.9,0)" xlink:href="#al"/><use transform="matrix(0.05,0,0,0.05,79.9,0)" xlink:href="#ar"/><use transform="matrix(0.05,0,0,0.05,84.9,0)" xlink:href="#as"/><use transform="matrix(0.05,0,0,0.05,94.9,0)" xlink:href="#at"/></g><path d="M100-194c62-1 85 37 85 99 1 63-27 99-86 99S16-35 15-95c0-66 28-99 85-99zM99-20c44 1 53-31 53-75 0-43-8-75-51-75s-53 32-53 75 10 74 51 75" id="au"/><path d="M85-194c31 0 48 13 60 33l-1-100h32l1 261h-30c-2-10 0-23-3-31C134-8 116 4 85 4 32 4 16-35 15-94c0-66 23-100 70-100zm9 24c-40 0-46 34-46 75 0 40 6 74 45 74 42 0 51-32 51-76 0-42-9-74-50-73" id="av"/><g id="d"><use transform="matrix(0.05,0,0,0.05,0,0)" xlink:href="#am"/><use transform="matrix(0.05,0,0,0.05,14.950000000000001,0)" xlink:href="#au"/><use transform="matrix(0.05,0,0,0.05,24.950000000000003,0)" xlink:href="#av"/></g><path d="M197 0v-115H63V0H30v-248h33v105h134v-105h34V0h-34" id="aw"/><path d="M127-220V0H93v-220H8v-28h204v28h-85" id="ax"/><path d="M30-248c87 1 191-15 191 75 0 78-77 80-158 76V0H30v-248zm33 125c57 0 124 11 124-50 0-59-68-47-124-48v98" id="ay"/><g id="e"><use transform="matrix(0.05,0,0,0.05,0,0)" xlink:href="#aw"/><use transform="matrix(0.05,0,0,0.05,12.950000000000001,0)" xlink:href="#ax"/><use transform="matrix(0.05,0,0,0.05,23.900000000000002,0)" xlink:href="#ax"/><use transform="matrix(0.05,0,0,0.05,34.85,0)" xlink:href="#ay"/></g><path d="M240 0l2-218c-23 76-54 145-80 218h-23L58-218 59 0H30v-248h44l77 211c21-75 51-140 76-211h43V0h-30" id="az"/><path d="M96-169c-40 0-48 33-48 73s9 75 48 75c24 0 41-14 43-38l32 2c-6 37-31 61-74 61-59 0-76-41-82-99-10-93 101-131 147-64 4 7 5 14 7 22l-32 3c-4-21-16-35-41-35" id="aA"/><path d="M106-169C34-169 62-67 57 0H25v-261h32l-1 103c12-21 28-36 61-36 89 0 53 116 60 194h-32v-121c2-32-8-49-39-48" id="aB"/><g id="f"><use transform="matrix(0.05,0,0,0.05,0,0)" xlink:href="#az"/><use transform="matrix(0.05,0,0,0.05,14.950000000000001,0)" xlink:href="#al"/><use transform="matrix(0.05,0,0,0.05,24.950000000000003,0)" xlink:href="#ar"/><use transform="matrix(0.05,0,0,0.05,29.950000000000003,0)" xlink:href="#aA"/><use transform="matrix(0.05,0,0,0.05,38.95,0)" xlink:href="#aB"/></g><path d="M115-194c55 1 70 41 70 98S169 2 115 4C84 4 66-9 55-30l1 105H24l-1-265h31l2 30c10-21 28-34 59-34zm-8 174c40 0 45-34 45-75s-6-73-45-74c-42 0-51 32-51 76 0 43 10 73 51 73" id="aC"/><path d="M24 0v-261h32V0H24" id="aD"/><g id="g"><use transform="matrix(0.05,0,0,0.05,0,0)" xlink:href="#as"/><use transform="matrix(0.05,0,0,0.05,10,0)" xlink:href="#aC"/><use transform="matrix(0.05,0,0,0.05,20,0)" xlink:href="#aD"/><use transform="matrix(0.05,0,0,0.05,23.95,0)" xlink:href="#au"/><use transform="matrix(0.05,0,0,0.05,33.95,0)" xlink:href="#al"/><use transform="matrix(0.05,0,0,0.05,43.95,0)" xlink:href="#av"/></g><path d="M266 0h-40l-56-210L115 0H75L2-248h35L96-30l15-64 43-154h32l59 218 59-218h35" id="aE"/><path d="M115-194c53 0 69 39 70 98 0 66-23 100-70 100C84 3 66-7 56-30L54 0H23l1-261h32v101c10-23 28-34 59-34zm-8 174c40 0 45-34 45-75 0-40-5-75-45-74-42 0-51 32-51 76 0 43 10 73 51 73" id="aF"/><path d="M143 0L79-87 56-68V0H24v-261h32v163l83-92h37l-77 82L181 0h-38" id="aG"/><g id="h"><use transform="matrix(0.05,0,0,0.05,0,0)" xlink:href="#aE"/><use transform="matrix(0.05,0,0,0.05,16.599999999999998,0)" xlink:href="#an"/><use transform="matrix(0.05,0,0,0.05,26.599999999999994,0)" xlink:href="#aF"/><use transform="matrix(0.05,0,0,0.05,36.599999999999994,0)" xlink:href="#ao"/><use transform="matrix(0.05,0,0,0.05,48.599999999999994,0)" xlink:href="#au"/><use transform="matrix(0.05,0,0,0.05,58.599999999999994,0)" xlink:href="#aA"/><use transform="matrix(0.05,0,0,0.05,67.6,0)" xlink:href="#aG"/><use transform="matrix(0.05,0,0,0.05,76.6,0)" xlink:href="#an"/><use transform="matrix(0.05,0,0,0.05,86.6,0)" xlink:href="#ar"/></g><path d="M232-93c-1 65-40 97-104 97C67 4 28-28 28-90v-158h33c8 89-33 224 67 224 102 0 64-133 71-224h33v155" id="aH"/><g id="i"><use transform="matrix(0.05,0,0,0.05,0,0)" xlink:href="#aH"/><use transform="matrix(0.05,0,0,0.05,12.950000000000001,0)" xlink:href="#aC"/><use transform="matrix(0.05,0,0,0.05,22.950000000000003,0)" xlink:href="#av"/><use transform="matrix(0.05,0,0,0.05,32.95,0)" xlink:href="#al"/><use transform="matrix(0.05,0,0,0.05,42.95,0)" xlink:href="#ar"/><use transform="matrix(0.05,0,0,0.05,47.95,0)" xlink:href="#an"/></g><path d="M117-194c89-4 53 116 60 194h-32v-121c0-31-8-49-39-48C34-167 62-67 57 0H25l-1-190h30c1 10-1 24 2 32 11-22 29-35 61-36" id="aI"/><path d="M24-231v-30h32v30H24zM24 0v-190h32V0H24" id="aJ"/><path d="M101-234c-31-9-42 10-38 44h38v23H63V0H32v-167H5v-23h27c-7-52 17-82 69-68v24" id="aK"/><g id="j"><use transform="matrix(0.05,0,0,0.05,0,0)" xlink:href="#aI"/><use transform="matrix(0.05,0,0,0.05,10,0)" xlink:href="#au"/><use transform="matrix(0.05,0,0,0.05,20,0)" xlink:href="#ar"/><use transform="matrix(0.05,0,0,0.05,25,0)" xlink:href="#aJ"/><use transform="matrix(0.05,0,0,0.05,28.950000000000003,0)" xlink:href="#aK"/><use transform="matrix(0.05,0,0,0.05,33.95,0)" xlink:href="#aJ"/><use transform="matrix(0.05,0,0,0.05,37.900000000000006,0)" xlink:href="#aA"/><use transform="matrix(0.05,0,0,0.05,46.900000000000006,0)" xlink:href="#al"/><use transform="matrix(0.05,0,0,0.05,56.900000000000006,0)" xlink:href="#ar"/><use transform="matrix(0.05,0,0,0.05,61.900000000000006,0)" xlink:href="#aJ"/><use transform="matrix(0.05,0,0,0.05,65.85000000000001,0)" xlink:href="#au"/><use transform="matrix(0.05,0,0,0.05,75.85000000000001,0)" xlink:href="#aI"/><use transform="matrix(0.05,0,0,0.05,85.85000000000001,0)" xlink:href="#at"/></g><g id="k"><use transform="matrix(0.05,0,0,0.05,0,0)" xlink:href="#ao"/><use transform="matrix(0.05,0,0,0.05,12,0)" xlink:href="#an"/><use transform="matrix(0.05,0,0,0.05,22,0)" xlink:href="#an"/><use transform="matrix(0.05,0,0,0.05,32,0)" xlink:href="#av"/></g><path d="M0 4l72-265h28L28 4H0" id="aL"/><use transform="matrix(0.05,0,0,0.05,0,0)" xlink:href="#aL" id="l"/><g id="m"><use transform="matrix(0.05,0,0,0.05,0,0)" xlink:href="#ay"/><use transform="matrix(0.05,0,0,0.05,12,0)" xlink:href="#au"/><use transform="matrix(0.05,0,0,0.05,22,0)" xlink:href="#aD"/><use transform="matrix(0.05,0,0,0.05,25.950000000000003,0)" xlink:href="#aD"/></g><path d="M179-190L93 31C79 59 56 82 12 73V49c39 6 53-20 64-50L1-190h34L92-34l54-156h33" id="aM"/><g id="n"><use transform="matrix(0.05,0,0,0.05,0,0)" xlink:href="#ak"/><use transform="matrix(0.05,0,0,0.05,14,0)" xlink:href="#al"/><use transform="matrix(0.05,0,0,0.05,24,0)" xlink:href="#am"/><use transform="matrix(0.05,0,0,0.05,38.95,0)" xlink:href="#an"/><use transform="matrix(0.05,0,0,0.05,48.95,0)" xlink:href="#ao"/><use transform="matrix(0.05,0,0,0.05,60.95,0)" xlink:href="#aC"/><use transform="matrix(0.05,0,0,0.05,70.95,0)" xlink:href="#aM"/></g><g id="o"><use transform="matrix(0.05,0,0,0.05,0,0)" xlink:href="#at"/><use transform="matrix(0.05,0,0,0.05,9,0)" xlink:href="#an"/><use transform="matrix(0.05,0,0,0.05,19,0)" xlink:href="#ap"/><use transform="matrix(0.05,0,0,0.05,24.95,0)" xlink:href="#aq"/><use transform="matrix(0.05,0,0,0.05,33.95,0)" xlink:href="#an"/><use transform="matrix(0.05,0,0,0.05,43.95,0)" xlink:href="#ap"/></g><path d="M145-31C134-9 116 4 85 4 32 4 16-35 15-94c0-59 17-99 70-100 32-1 48 14 60 33 0-11-1-24 2-32h30l-1 268h-32zM93-21c41 0 51-33 51-76s-8-73-50-73c-40 0-46 35-46 75s5 74 45 74" id="aN"/><g id="p"><use transform="matrix(0.05,0,0,0.05,0,0)" xlink:href="#aN"/><use transform="matrix(0.05,0,0,0.05,10,0)" xlink:href="#as"/><use transform="matrix(0.05,0,0,0.05,20,0)" xlink:href="#an"/><use transform="matrix(0.05,0,0,0.05,30,0)" xlink:href="#ap"/><use transform="matrix(0.05,0,0,0.05,35.95,0)" xlink:href="#aM"/></g><g id="q"><use transform="matrix(0.05,0,0,0.05,0,0)" xlink:href="#aC"/><use transform="matrix(0.05,0,0,0.05,10,0)" xlink:href="#au"/><use transform="matrix(0.05,0,0,0.05,20,0)" xlink:href="#ap"/><use transform="matrix(0.05,0,0,0.05,25.950000000000003,0)" xlink:href="#ar"/></g><path d="M140-251c81 0 123 46 123 126C263-53 228-8 163 1c7 30 30 48 69 40v23c-55 16-95-15-103-61C56-3 17-48 17-125c0-80 42-126 123-126zm0 227c63 0 89-41 89-101s-29-99-89-99c-61 0-89 39-89 99S79-25 140-24" id="aO"/><path d="M233-177c-1 41-23 64-60 70L243 0h-38l-65-103H63V0H30v-248c88 3 205-21 203 71zM63-129c60-2 137 13 137-47 0-61-80-42-137-45v92" id="aP"/><path d="M101-251c82-7 93 87 43 132L82-64C71-53 59-42 53-27h129V0H18c2-99 128-94 128-182 0-28-16-43-45-43s-46 15-49 41l-32-3c6-41 34-60 81-64" id="aQ"/><g id="r"><use transform="matrix(0.05,0,0,0.05,0,0)" xlink:href="#aO"/><use transform="matrix(0.05,0,0,0.05,14,0)" xlink:href="#aP"/><use transform="matrix(0.05,0,0,0.05,26.950000000000003,0)" xlink:href="#aQ"/></g><g id="s"><use transform="matrix(0.05,0,0,0.05,0,0)" xlink:href="#ay"/><use transform="matrix(0.05,0,0,0.05,12,0)" xlink:href="#au"/><use transform="matrix(0.05,0,0,0.05,22,0)" xlink:href="#aD"/><use transform="matrix(0.05,0,0,0.05,25.950000000000003,0)" xlink:href="#aD"/></g><g id="t"><use transform="matrix(0.05,0,0,0.05,0,0)" xlink:href="#aO"/><use transform="matrix(0.05,0,0,0.05,14,0)" xlink:href="#as"/><use transform="matrix(0.05,0,0,0.05,24,0)" xlink:href="#aJ"/><use transform="matrix(0.05,0,0,0.05,27.950000000000003,0)" xlink:href="#aA"/><use transform="matrix(0.05,0,0,0.05,36.95,0)" xlink:href="#aG"/></g><g id="u"><use transform="matrix(0.05,0,0,0.05,0,0)" xlink:href="#at"/><use transform="matrix(0.05,0,0,0.05,9,0)" xlink:href="#ar"/><use transform="matrix(0.05,0,0,0.05,14,0)" xlink:href="#al"/><use transform="matrix(0.05,0,0,0.05,24,0)" xlink:href="#ar"/><use transform="matrix(0.05,0,0,0.05,29,0)" xlink:href="#at"/></g><g id="v"><use transform="matrix(0.05,0,0,0.05,0,0)" xlink:href="#aE"/><use transform="matrix(0.05,0,0,0.05,16.599999999999998,0)" xlink:href="#an"/><use transform="matrix(0.05,0,0,0.05,26.599999999999994,0)" xlink:href="#aF"/></g><path d="M205 0l-28-72H64L36 0H1l101-248h38L239 0h-34zm-38-99l-47-123c-12 45-31 82-46 123h93" id="aR"/><g id="w"><use transform="matrix(0.05,0,0,0.05,0,0)" xlink:href="#aR"/><use transform="matrix(0.05,0,0,0.05,12,0)" xlink:href="#av"/><use transform="matrix(0.05,0,0,0.05,22,0)" xlink:href="#am"/><use transform="matrix(0.05,0,0,0.05,36.95,0)" xlink:href="#aJ"/><use transform="matrix(0.05,0,0,0.05,40.900000000000006,0)" xlink:href="#aI"/></g><path d="M177-190C167-65 218 103 67 71c-23-6-38-20-44-43l32-5c15 47 100 32 89-28v-30C133-14 115 1 83 1 29 1 15-40 15-95c0-56 16-97 71-98 29-1 48 16 59 35 1-10 0-23 2-32h30zM94-22c36 0 50-32 50-73 0-42-14-75-50-75-39 0-46 34-46 75s6 73 46 73" id="aS"/><g id="x"><use transform="matrix(0.05,0,0,0.05,0,0)" xlink:href="#aJ"/><use transform="matrix(0.05,0,0,0.05,3.95,0)" xlink:href="#aI"/><use transform="matrix(0.05,0,0,0.05,13.949999999999998,0)" xlink:href="#aS"/><use transform="matrix(0.05,0,0,0.05,23.95,0)" xlink:href="#al"/><use transform="matrix(0.05,0,0,0.05,33.95,0)" xlink:href="#am"/><use transform="matrix(0.05,0,0,0.05,48.900000000000006,0)" xlink:href="#an"/></g><g id="y"><use transform="matrix(0.05,0,0,0.05,0,0)" xlink:href="#aA"/><use transform="matrix(0.05,0,0,0.05,9,0)" xlink:href="#aB"/><use transform="matrix(0.05,0,0,0.05,19,0)" xlink:href="#al"/><use transform="matrix(0.05,0,0,0.05,29,0)" xlink:href="#ar"/></g><g id="z"><use transform="matrix(0.05,0,0,0.05,0,0)" xlink:href="#aw"/><use transform="matrix(0.05,0,0,0.05,12.950000000000001,0)" xlink:href="#ax"/><use transform="matrix(0.05,0,0,0.05,23.900000000000002,0)" xlink:href="#ax"/><use transform="matrix(0.05,0,0,0.05,34.85,0)" xlink:href="#ay"/></g><g id="A"><use transform="matrix(0.05,0,0,0.05,0,0)" xlink:href="#ax"/><use transform="matrix(0.05,0,0,0.05,10.3,0)" xlink:href="#aJ"/><use transform="matrix(0.05,0,0,0.05,14.25,0)" xlink:href="#aA"/><use transform="matrix(0.05,0,0,0.05,23.25,0)" xlink:href="#aG"/><use transform="matrix(0.05,0,0,0.05,32.25,0)" xlink:href="#an"/><use transform="matrix(0.05,0,0,0.05,42.25,0)" xlink:href="#ap"/></g><path d="M160-131c35 5 61 23 61 61C221 17 115-2 30 0v-248c76 3 177-17 177 60 0 33-19 50-47 57zm-97-11c50-1 110 9 110-42 0-47-63-36-110-37v79zm0 115c55-2 124 14 124-45 0-56-70-42-124-44v89" id="aT"/><path d="M206 0h-36l-40-164L89 0H53L-1-190h32L70-26l43-164h34l41 164 42-164h31" id="aU"/><g id="B"><use transform="matrix(0.05,0,0,0.05,0,0)" xlink:href="#aT"/><use transform="matrix(0.05,0,0,0.05,12,0)" xlink:href="#ap"/><use transform="matrix(0.05,0,0,0.05,17.95,0)" xlink:href="#au"/><use transform="matrix(0.05,0,0,0.05,27.950000000000003,0)" xlink:href="#aU"/><use transform="matrix(0.05,0,0,0.05,40.9,0)" xlink:href="#at"/><use transform="matrix(0.05,0,0,0.05,49.9,0)" xlink:href="#an"/><use transform="matrix(0.05,0,0,0.05,59.900000000000006,0)" xlink:href="#ap"/></g><path d="M30 0v-248h187v28H63v79h144v27H63v87h162V0H30" id="aV"/><path d="M141 0L90-78 38 0H4l68-98-65-92h35l48 74 47-74h35l-64 92 68 98h-35" id="aW"/><g id="C"><use transform="matrix(0.05,0,0,0.05,0,0)" xlink:href="#aV"/><use transform="matrix(0.05,0,0,0.05,12,0)" xlink:href="#aW"/><use transform="matrix(0.05,0,0,0.05,21,0)" xlink:href="#ar"/><use transform="matrix(0.05,0,0,0.05,26,0)" xlink:href="#an"/><use transform="matrix(0.05,0,0,0.05,36,0)" xlink:href="#aI"/><use transform="matrix(0.05,0,0,0.05,46,0)" xlink:href="#at"/><use transform="matrix(0.05,0,0,0.05,55,0)" xlink:href="#aJ"/><use transform="matrix(0.05,0,0,0.05,58.95,0)" xlink:href="#au"/><use transform="matrix(0.05,0,0,0.05,68.95,0)" xlink:href="#aI"/></g><g id="D"><use transform="matrix(0.05,0,0,0.05,0,0)" xlink:href="#ay"/><use transform="matrix(0.05,0,0,0.05,12,0)" xlink:href="#au"/><use transform="matrix(0.05,0,0,0.05,22,0)" xlink:href="#at"/><use transform="matrix(0.05,0,0,0.05,31,0)" xlink:href="#ar"/></g><g id="E"><use transform="matrix(0.05,0,0,0.05,0,0)" xlink:href="#aJ"/><use transform="matrix(0.05,0,0,0.05,3.95,0)" xlink:href="#aI"/><use transform="matrix(0.05,0,0,0.05,13.949999999999998,0)" xlink:href="#aS"/><use transform="matrix(0.05,0,0,0.05,23.95,0)" xlink:href="#al"/><use transform="matrix(0.05,0,0,0.05,33.95,0)" xlink:href="#am"/><use transform="matrix(0.05,0,0,0.05,48.900000000000006,0)" xlink:href="#an"/></g><g id="F"><use transform="matrix(0.05,0,0,0.05,0,0)" xlink:href="#aA"/><use transform="matrix(0.05,0,0,0.05,9,0)" xlink:href="#aB"/><use transform="matrix(0.05,0,0,0.05,19,0)" xlink:href="#al"/><use transform="matrix(0.05,0,0,0.05,29,0)" xlink:href="#ar"/></g><g id="G"><use transform="matrix(0.05,0,0,0.05,0,0)" xlink:href="#aw"/><use transform="matrix(0.05,0,0,0.05,12.950000000000001,0)" xlink:href="#ax"/><use transform="matrix(0.05,0,0,0.05,23.900000000000002,0)" xlink:href="#ax"/><use transform="matrix(0.05,0,0,0.05,34.85,0)" xlink:href="#ay"/></g><g id="H"><use transform="matrix(0.05,0,0,0.05,0,0)" xlink:href="#aE"/><use transform="matrix(0.05,0,0,0.05,16.599999999999998,0)" xlink:href="#an"/><use transform="matrix(0.05,0,0,0.05,26.599999999999994,0)" xlink:href="#aF"/><use transform="matrix(0.05,0,0,0.05,36.599999999999994,0)" xlink:href="#aw"/><use transform="matrix(0.05,0,0,0.05,49.55,0)" xlink:href="#au"/><use transform="matrix(0.05,0,0,0.05,59.54999999999999,0)" xlink:href="#au"/><use transform="matrix(0.05,0,0,0.05,69.55,0)" xlink:href="#aG"/></g><g id="I"><use transform="matrix(0.05,0,0,0.05,0,0)" xlink:href="#aP"/><use transform="matrix(0.05,0,0,0.05,12.950000000000001,0)" xlink:href="#an"/><use transform="matrix(0.05,0,0,0.05,22.950000000000003,0)" xlink:href="#aA"/><use transform="matrix(0.05,0,0,0.05,31.950000000000003,0)" xlink:href="#an"/><use transform="matrix(0.05,0,0,0.05,41.95,0)" xlink:href="#aJ"/><use transform="matrix(0.05,0,0,0.05,45.900000000000006,0)" xlink:href="#aq"/><use transform="matrix(0.05,0,0,0.05,54.900000000000006,0)" xlink:href="#an"/></g><g id="J"><use transform="matrix(0.05,0,0,0.05,0,0)" xlink:href="#am"/><use transform="matrix(0.05,0,0,0.05,14.950000000000001,0)" xlink:href="#an"/><use transform="matrix(0.05,0,0,0.05,24.950000000000003,0)" xlink:href="#at"/><use transform="matrix(0.05,0,0,0.05,33.95,0)" xlink:href="#at"/><use transform="matrix(0.05,0,0,0.05,42.95,0)" xlink:href="#al"/><use transform="matrix(0.05,0,0,0.05,52.95,0)" xlink:href="#aS"/><use transform="matrix(0.05,0,0,0.05,62.95,0)" xlink:href="#an"/></g><path d="M30-248c118-7 216 8 213 122C240-48 200 0 122 0H30v-248zM63-27c89 8 146-16 146-99s-60-101-146-95v194" id="aX"/><g id="K"><use transform="matrix(0.05,0,0,0.05,0,0)" xlink:href="#aX"/><use transform="matrix(0.05,0,0,0.05,12.950000000000001,0)" xlink:href="#aJ"/><use transform="matrix(0.05,0,0,0.05,16.900000000000002,0)" xlink:href="#at"/><use transform="matrix(0.05,0,0,0.05,25.900000000000002,0)" xlink:href="#aA"/><use transform="matrix(0.05,0,0,0.05,34.900000000000006,0)" xlink:href="#au"/><use transform="matrix(0.05,0,0,0.05,44.900000000000006,0)" xlink:href="#ap"/><use transform="matrix(0.05,0,0,0.05,50.85000000000001,0)" xlink:href="#av"/></g><g id="L"><use transform="matrix(0.05,0,0,0.05,0,0)" xlink:href="#ax"/><use transform="matrix(0.05,0,0,0.05,10.3,0)" xlink:href="#ap"/><use transform="matrix(0.05,0,0,0.05,16.25,0)" xlink:href="#aJ"/><use transform="matrix(0.05,0,0,0.05,20.2,0)" xlink:href="#aF"/><use transform="matrix(0.05,0,0,0.05,30.200000000000003,0)" xlink:href="#an"/><use transform="matrix(0.05,0,0,0.05,40.2,0)" xlink:href="#at"/></g><path d="M137 0h-34L2-248h35l83 218 83-218h36" id="aY"/><g id="M"><use transform="matrix(0.05,0,0,0.05,0,0)" xlink:href="#aY"/><use transform="matrix(0.05,0,0,0.05,11,0)" xlink:href="#an"/><use transform="matrix(0.05,0,0,0.05,21,0)" xlink:href="#aI"/><use transform="matrix(0.05,0,0,0.05,31,0)" xlink:href="#aS"/><use transform="matrix(0.05,0,0,0.05,41,0)" xlink:href="#an"/><use transform="matrix(0.05,0,0,0.05,51,0)" xlink:href="#al"/><use transform="matrix(0.05,0,0,0.05,61,0)" xlink:href="#aI"/><use transform="matrix(0.05,0,0,0.05,71,0)" xlink:href="#aA"/><use transform="matrix(0.05,0,0,0.05,80,0)" xlink:href="#an"/></g><g id="N"><use transform="matrix(0.05,0,0,0.05,0,0)" xlink:href="#ao"/><use transform="matrix(0.05,0,0,0.05,12,0)" xlink:href="#ar"/><use transform="matrix(0.05,0,0,0.05,17,0)" xlink:href="#al"/><use transform="matrix(0.05,0,0,0.05,27,0)" xlink:href="#ar"/><use transform="matrix(0.05,0,0,0.05,32,0)" xlink:href="#at"/></g><g id="O"><use transform="matrix(0.05,0,0,0.05,0,0)" xlink:href="#az"/><use transform="matrix(0.05,0,0,0.05,14.950000000000001,0)" xlink:href="#al"/><use transform="matrix(0.05,0,0,0.05,24.950000000000003,0)" xlink:href="#ar"/><use transform="matrix(0.05,0,0,0.05,29.950000000000003,0)" xlink:href="#aA"/><use transform="matrix(0.05,0,0,0.05,38.95,0)" xlink:href="#aB"/></g><path d="M33 0v-248h34V0H33" id="aZ"/><g id="P"><use transform="matrix(0.05,0,0,0.05,0,0)" xlink:href="#aR"/><use transform="matrix(0.05,0,0,0.05,12,0)" xlink:href="#ay"/><use transform="matrix(0.05,0,0,0.05,24,0)" xlink:href="#aZ"/></g><g id="Q"><use transform="matrix(0.05,0,0,0.05,0,0)" xlink:href="#aH"/><use transform="matrix(0.05,0,0,0.05,12.950000000000001,0)" xlink:href="#aC"/><use transform="matrix(0.05,0,0,0.05,22.950000000000003,0)" xlink:href="#av"/><use transform="matrix(0.05,0,0,0.05,32.95,0)" xlink:href="#al"/><use transform="matrix(0.05,0,0,0.05,42.95,0)" xlink:href="#ar"/><use transform="matrix(0.05,0,0,0.05,47.95,0)" xlink:href="#an"/><use transform="matrix(0.05,0,0,0.05,57.95,0)" xlink:href="#at"/></g><g id="R"><use transform="matrix(0.05,0,0,0.05,0,0)" xlink:href="#aE"/><use transform="matrix(0.05,0,0,0.05,16.95,0)" xlink:href="#ao"/></g><g id="S"><use transform="matrix(0.05,0,0,0.05,0,0)" xlink:href="#ay"/><use transform="matrix(0.05,0,0,0.05,12,0)" xlink:href="#aD"/><use transform="matrix(0.05,0,0,0.05,15.949999999999998,0)" xlink:href="#al"/><use transform="matrix(0.05,0,0,0.05,25.950000000000003,0)" xlink:href="#aM"/><use transform="matrix(0.05,0,0,0.05,34.95,0)" xlink:href="#an"/><use transform="matrix(0.05,0,0,0.05,44.95,0)" xlink:href="#ap"/><use transform="matrix(0.05,0,0,0.05,50.900000000000006,0)" xlink:href="#at"/></g><path d="M230 0l2-204L168 0h-37L68-204 70 0H24v-248h70l56 185 57-185h69V0h-46" id="ba"/><path d="M110-194c64 0 96 36 96 99 0 64-35 99-97 99-61 0-95-36-95-99 0-62 34-99 96-99zm-1 164c35 0 45-28 45-65 0-40-10-65-43-65-34 0-45 26-45 65 0 36 10 65 43 65" id="bb"/><path d="M135-194c87-1 58 113 63 194h-50c-7-57 23-157-34-157-59 0-34 97-39 157H25l-1-190h47c2 12-1 28 3 38 12-26 28-41 61-42" id="bc"/><path d="M195-6C206 82 75 100 31 46c-4-6-6-13-8-21l49-6c3 16 16 24 34 25 40 0 42-37 40-79-11 22-30 35-61 35-53 0-70-43-70-97 0-56 18-96 73-97 30 0 46 14 59 34l2-30h47zm-90-29c32 0 41-27 41-63 0-35-9-62-40-62-32 0-39 29-40 63 0 36 9 62 39 62" id="bd"/><path d="M24-248c120-7 223 5 221 122C244-46 201 0 124 0H24v-248zM76-40c74 7 117-18 117-86 0-67-45-88-117-82v168" id="be"/><path d="M182-130c37 4 62 22 62 59C244 23 116-4 24 0v-248c84 5 203-23 205 63 0 31-19 50-47 55zM76-148c40-3 101 13 101-30 0-44-60-28-101-31v61zm0 110c48-3 116 14 116-37 0-48-69-32-116-35v72" id="bf"/><g id="T"><use transform="matrix(0.05,0,0,0.05,0,0)" xlink:href="#ba"/><use transform="matrix(0.05,0,0,0.05,14.950000000000001,0)" xlink:href="#bb"/><use transform="matrix(0.05,0,0,0.05,25.900000000000002,0)" xlink:href="#bc"/><use transform="matrix(0.05,0,0,0.05,36.85,0)" xlink:href="#bd"/><use transform="matrix(0.05,0,0,0.05,47.800000000000004,0)" xlink:href="#bb"/><use transform="matrix(0.05,0,0,0.05,58.75,0)" xlink:href="#be"/><use transform="matrix(0.05,0,0,0.05,71.7,0)" xlink:href="#bf"/></g><g id="U"><use transform="matrix(0.05,0,0,0.05,0,0)" xlink:href="#ay"/><use transform="matrix(0.05,0,0,0.05,12,0)" xlink:href="#aD"/><use transform="matrix(0.05,0,0,0.05,15.949999999999998,0)" xlink:href="#al"/><use transform="matrix(0.05,0,0,0.05,25.950000000000003,0)" xlink:href="#aM"/><use transform="matrix(0.05,0,0,0.05,34.95,0)" xlink:href="#an"/><use transform="matrix(0.05,0,0,0.05,44.95,0)" xlink:href="#ap"/><use transform="matrix(0.05,0,0,0.05,50.900000000000006,0)" xlink:href="#at"/></g><g id="V"><use transform="matrix(0.05,0,0,0.05,0,0)" xlink:href="#az"/><use transform="matrix(0.05,0,0,0.05,14.950000000000001,0)" xlink:href="#al"/><use transform="matrix(0.05,0,0,0.05,24.950000000000003,0)" xlink:href="#ar"/><use transform="matrix(0.05,0,0,0.05,29.950000000000003,0)" xlink:href="#aA"/><use transform="matrix(0.05,0,0,0.05,38.95,0)" xlink:href="#aB"/><use transform="matrix(0.05,0,0,0.05,48.95,0)" xlink:href="#an"/><use transform="matrix(0.05,0,0,0.05,58.95,0)" xlink:href="#at"/></g><path d="M24 0v-248h52V0H24" id="bg"/><path d="M121-226c-27-7-43 5-38 36h38v33H83V0H34v-157H6v-33h28c-9-59 32-81 87-68v32" id="bh"/><path d="M25 0v-261h50V0H25" id="bi"/><path d="M85 4C-2 5 27-109 22-190h50c7 57-23 150 33 157 60-5 35-97 40-157h50l1 190h-47c-2-12 1-28-3-38-12 25-28 42-61 42" id="bj"/><path d="M144 0l-44-69L55 0H2l70-98-66-92h53l41 62 40-62h54l-67 91 71 99h-54" id="bk"/><g id="W"><use transform="matrix(0.05,0,0,0.05,0,0)" xlink:href="#bg"/><use transform="matrix(0.05,0,0,0.05,5,0)" xlink:href="#bc"/><use transform="matrix(0.05,0,0,0.05,15.950000000000001,0)" xlink:href="#bh"/><use transform="matrix(0.05,0,0,0.05,21.900000000000002,0)" xlink:href="#bi"/><use transform="matrix(0.05,0,0,0.05,26.900000000000002,0)" xlink:href="#bj"/><use transform="matrix(0.05,0,0,0.05,37.85,0)" xlink:href="#bk"/><use transform="matrix(0.05,0,0,0.05,47.85,0)" xlink:href="#be"/><use transform="matrix(0.05,0,0,0.05,60.800000000000004,0)" xlink:href="#bf"/></g><g id="X"><use transform="matrix(0.05,0,0,0.05,0,0)" xlink:href="#ao"/><use transform="matrix(0.05,0,0,0.05,12,0)" xlink:href="#an"/><use transform="matrix(0.05,0,0,0.05,22,0)" xlink:href="#ap"/><use transform="matrix(0.05,0,0,0.05,27.950000000000003,0)" xlink:href="#aq"/><use transform="matrix(0.05,0,0,0.05,36.95,0)" xlink:href="#an"/><use transform="matrix(0.05,0,0,0.05,46.95,0)" xlink:href="#ap"/></g><g id="Y"><use transform="matrix(0.05,0,0,0.05,0,0)" xlink:href="#ay"/><use transform="matrix(0.05,0,0,0.05,12,0)" xlink:href="#au"/><use transform="matrix(0.05,0,0,0.05,22,0)" xlink:href="#aC"/></g><path d="M240-174c0 40-23 61-54 70L253 0h-59l-57-94H76V0H24v-248c93 4 217-23 216 74zM76-134c48-2 112 12 112-38 0-48-66-32-112-35v73" id="bl"/><path d="M185-48c-13 30-37 53-82 52C43 2 14-33 14-96s30-98 90-98c62 0 83 45 84 108H66c0 31 8 55 39 56 18 0 30-7 34-22zm-45-69c5-46-57-63-70-21-2 6-4 13-4 21h74" id="bm"/><path d="M88-194c31-1 46 15 58 34l-1-101h50l1 261h-48c-2-10 0-23-3-31C134-8 116 4 84 4 32 4 16-41 15-95c0-56 19-97 73-99zm17 164c33 0 40-30 41-66 1-37-9-64-41-64s-38 30-39 65c0 43 13 65 39 65" id="bn"/><path d="M25-224v-37h50v37H25zM25 0v-190h50V0H25" id="bo"/><path d="M137-138c1-29-70-34-71-4 15 46 118 7 119 86 1 83-164 76-172 9l43-7c4 19 20 25 44 25 33 8 57-30 24-41C81-84 22-81 20-136c-2-80 154-74 161-7" id="bp"/><g id="Z"><use transform="matrix(0.05,0,0,0.05,0,0)" xlink:href="#bl"/><use transform="matrix(0.05,0,0,0.05,12.950000000000001,0)" xlink:href="#bm"/><use transform="matrix(0.05,0,0,0.05,22.950000000000003,0)" xlink:href="#bn"/><use transform="matrix(0.05,0,0,0.05,33.900000000000006,0)" xlink:href="#bo"/><use transform="matrix(0.05,0,0,0.05,38.900000000000006,0)" xlink:href="#bp"/></g><path d="M212-179c-10-28-35-45-73-45-59 0-87 40-87 99 0 60 29 101 89 101 43 0 62-24 78-52l27 14C228-24 195 4 139 4 59 4 22-46 18-125c-6-104 99-153 187-111 19 9 31 26 39 46" id="bq"/><g id="aa"><use transform="matrix(0.05,0,0,0.05,0,0)" xlink:href="#bq"/><use transform="matrix(0.05,0,0,0.05,12.950000000000001,0)" xlink:href="#aB"/><use transform="matrix(0.05,0,0,0.05,22.950000000000003,0)" xlink:href="#al"/><use transform="matrix(0.05,0,0,0.05,32.95,0)" xlink:href="#ar"/></g><g id="ab"><use transform="matrix(0.05,0,0,0.05,0,0)" xlink:href="#ao"/><use transform="matrix(0.05,0,0,0.05,12,0)" xlink:href="#aM"/><use transform="matrix(0.05,0,0,0.05,21,0)" xlink:href="#aI"/><use transform="matrix(0.05,0,0,0.05,31,0)" xlink:href="#aA"/></g><path d="M190-63c-7 42-38 67-86 67-59 0-84-38-90-98-12-110 154-137 174-36l-49 2c-2-19-15-32-35-32-30 0-35 28-38 64-6 74 65 87 74 30" id="br"/><path d="M135-150c-39-12-60 13-60 57V0H25l-1-190h47c2 13-1 29 3 40 6-28 27-53 61-41v41" id="bs"/><g id="ac"><use transform="matrix(0.05,0,0,0.05,0,0)" xlink:href="#be"/><use transform="matrix(0.05,0,0,0.05,12.950000000000001,0)" xlink:href="#bo"/><use transform="matrix(0.05,0,0,0.05,17.950000000000003,0)" xlink:href="#bp"/><use transform="matrix(0.05,0,0,0.05,27.950000000000003,0)" xlink:href="#br"/><use transform="matrix(0.05,0,0,0.05,37.95,0)" xlink:href="#bb"/><use transform="matrix(0.05,0,0,0.05,48.900000000000006,0)" xlink:href="#bs"/><use transform="matrix(0.05,0,0,0.05,55.900000000000006,0)" xlink:href="#bn"/></g><g id="ad"><use transform="matrix(0.05,0,0,0.05,0,0)" xlink:href="#aZ"/><use transform="matrix(0.05,0,0,0.05,5,0)" xlink:href="#az"/></g><g id="ae"><use transform="matrix(0.05,0,0,0.05,0,0)" xlink:href="#aC"/><use transform="matrix(0.05,0,0,0.05,10,0)" xlink:href="#aD"/><use transform="matrix(0.05,0,0,0.05,13.949999999999998,0)" xlink:href="#al"/><use transform="matrix(0.05,0,0,0.05,23.95,0)" xlink:href="#ar"/><use transform="matrix(0.05,0,0,0.05,28.950000000000003,0)" xlink:href="#aK"/><use transform="matrix(0.05,0,0,0.05,33.95,0)" xlink:href="#au"/><use transform="matrix(0.05,0,0,0.05,43.95,0)" xlink:href="#ap"/><use transform="matrix(0.05,0,0,0.05,49.900000000000006,0)" xlink:href="#am"/></g><path d="M140-251c80 0 125 45 125 126 0 70-33 111-92 124 6 28 34 38 68 31l-1 36C177 83 129 55 120 2 51-6 15-50 15-125c0-81 44-126 125-126zm-1 214c52 0 73-35 73-88 0-50-21-86-72-86-52 0-73 35-73 86s22 88 72 88" id="bt"/><path d="M115-3C79 11 28 4 28-45v-112H4v-33h27l15-45h31v45h36v33H77v99c-1 23 16 31 38 25v30" id="bu"/><path d="M133-34C117-15 103 5 69 4 32 3 11-16 11-54c-1-60 55-63 116-61 1-26-3-47-28-47-18 1-26 9-28 27l-52-2c7-38 36-58 82-57s74 22 75 68l1 82c-1 14 12 18 25 15v27c-30 8-71 5-69-32zm-48 3c29 0 43-24 42-57-32 0-66-3-65 30 0 17 8 27 23 27" id="bv"/><path d="M147 0L96-86 75-71V0H25v-261h50v150l67-79h53l-66 74L201 0h-54" id="bw"/><g id="af"><use transform="matrix(0.05,0,0,0.05,0,0)" xlink:href="#bt"/><use transform="matrix(0.05,0,0,0.05,14,0)" xlink:href="#bu"/><use transform="matrix(0.05,0,0,0.05,19.95,0)" xlink:href="#bs"/><use transform="matrix(0.05,0,0,0.05,26.950000000000003,0)" xlink:href="#bv"/><use transform="matrix(0.05,0,0,0.05,36.95,0)" xlink:href="#br"/><use transform="matrix(0.05,0,0,0.05,46.95,0)" xlink:href="#bw"/><use transform="matrix(0.05,0,0,0.05,56.95,0)" xlink:href="#bm"/><use transform="matrix(0.05,0,0,0.05,66.95,0)" xlink:href="#bs"/></g><g id="ag"><use transform="matrix(0.05,0,0,0.05,0,0)" xlink:href="#az"/><use transform="matrix(0.05,0,0,0.05,14.950000000000001,0)" xlink:href="#al"/><use transform="matrix(0.05,0,0,0.05,24.950000000000003,0)" xlink:href="#at"/><use transform="matrix(0.05,0,0,0.05,33.95,0)" xlink:href="#ar"/><use transform="matrix(0.05,0,0,0.05,38.95,0)" xlink:href="#an"/><use transform="matrix(0.05,0,0,0.05,48.95,0)" xlink:href="#ap"/></g><g id="ah"><use transform="matrix(0.05,0,0,0.05,0,0)" xlink:href="#at"/><use transform="matrix(0.05,0,0,0.05,9,0)" xlink:href="#an"/><use transform="matrix(0.05,0,0,0.05,19,0)" xlink:href="#ap"/><use transform="matrix(0.05,0,0,0.05,24.95,0)" xlink:href="#aq"/><use transform="matrix(0.05,0,0,0.05,33.95,0)" xlink:href="#an"/><use transform="matrix(0.05,0,0,0.05,43.95,0)" xlink:href="#ap"/></g><path d="M30 0v-248h33v221h125V0H30" id="bx"/><g id="ai"><use transform="matrix(0.05,0,0,0.05,0,0)" xlink:href="#bx"/><use transform="matrix(0.05,0,0,0.05,10,0)" xlink:href="#aJ"/><use transform="matrix(0.05,0,0,0.05,13.949999999999998,0)" xlink:href="#at"/><use transform="matrix(0.05,0,0,0.05,22.95,0)" xlink:href="#ar"/></g><g id="aj"><use transform="matrix(0.05,0,0,0.05,0,0)" xlink:href="#at"/><use transform="matrix(0.05,0,0,0.05,9,0)" xlink:href="#an"/><use transform="matrix(0.05,0,0,0.05,19,0)" xlink:href="#ap"/><use transform="matrix(0.05,0,0,0.05,24.95,0)" xlink:href="#aq"/><use transform="matrix(0.05,0,0,0.05,33.95,0)" xlink:href="#an"/><use transform="matrix(0.05,0,0,0.05,43.95,0)" xlink:href="#ap"/><use transform="matrix(0.05,0,0,0.05,49.900000000000006,0)" xlink:href="#at"/></g></defs></g></svg>